<svg xmlns="http://www.w3.org/2000/svg" viewBox="0 0 120 120" width="120" height="120">
  <!-- Speed lines at bottom -->
  <line x1="30" y1="83" x2="40" y2="83" stroke="#000000" stroke-width="1.5" stroke-linecap="round"/>
  <line x1="45" y1="83" x2="48" y2="83" stroke="#000000" stroke-width="1.5" stroke-linecap="round"/>
  <line x1="68" y1="83" x2="78" y2="83" stroke="#000000" stroke-width="1.5" stroke-linecap="round"/>
  <line x1="83" y1="83" x2="86" y2="83" stroke="#000000" stroke-width="1.5" stroke-linecap="round"/>

  <!-- Clouds -->
  <!-- Cloud 1 (Top right) -->
  <path d="M 81 48 A 4.5 4.5 0 0 1 85.5 43.5 A 4.5 4.5 0 0 1 90 48 A 4.5 4.5 0 0 1 87.5 52 A 4.5 4.5 0 0 1 81.5 52 A 4.5 4.5 0 0 1 81 48 Z" fill="#ffffff" stroke="#000000" stroke-width="1.5" stroke-linejoin="round"/>
  <!-- Cloud 2 (Bottom right) -->
  <path d="M 89 59 A 6 6 0 0 1 95 53 A 6 6 0 0 1 101 59 A 6 6 0 0 1 99 65 A 6 6 0 0 1 91.5 65 A 6 6 0 0 1 89 59 Z" fill="#ffffff" stroke="#000000" stroke-width="1.5" stroke-linejoin="round"/>

  <!-- Truck Cabin -->
  <path d="M 26 77 L 26 65 L 34 55 L 43 55 L 43 77 Z" fill="#ffffff" stroke="#000000" stroke-width="1.5" stroke-linejoin="round"/>
  <path d="M 30 65 L 35 59 L 40 59 L 40 65 Z" fill="#8cc4e8" stroke="#000000" stroke-width="1.5" stroke-linejoin="round"/>

  <!-- House Wall (Front - White) -->
  <path d="M 43 77 L 43 60 L 51 51 L 62 60 L 62 77 Z" fill="#ffffff" stroke="#000000" stroke-width="1.5" stroke-linejoin="round"/>
  <rect x="50" y="58" width="4" height="4" fill="#8cc4e8" stroke="#000000" stroke-width="1"/>

  <!-- House Side Wall & Roof (Pink) -->
  <!-- Side Wall -->
  <path d="M 62 77 L 62 60 L 81 60 L 81 77 Z" fill="#ea9ab2" stroke="#000000" stroke-width="1.5" stroke-linejoin="round"/>
  <!-- Roof -->
  <path d="M 51 51 L 62 51 L 81 60 L 62 60 Z" fill="#ea9ab2" stroke="#000000" stroke-width="1.5" stroke-linejoin="round"/>
  <line x1="62" y1="54" x2="73" y2="54" stroke="#d1758f" stroke-width="1"/>
  <line x1="64" y1="57" x2="77" y2="57" stroke="#d1758f" stroke-width="1"/>

  <!-- Chimney -->
  <rect x="69" y="45" width="4" height="9" fill="#ea9ab2" stroke="#000000" stroke-width="1.5" stroke-linejoin="round"/>

  <!-- Truck Bed (Brown Board) -->
  <rect x="43" y="71" width="38" height="6" fill="#cca580" stroke="#000000" stroke-width="1.5" stroke-linejoin="round"/>

  <!-- Blue Fence Posts -->
  <path d="M 48 77 L 48 68 A 1.5 1.5 0 0 1 51 68 L 51 77 Z" fill="#8cc4e8" stroke="#000000" stroke-width="1.5"/>
  <path d="M 55 77 L 55 68 A 1.5 1.5 0 0 1 58 68 L 58 77 Z" fill="#8cc4e8" stroke="#000000" stroke-width="1.5"/>
  <path d="M 62 77 L 62 68 A 1.5 1.5 0 0 1 65 68 L 65 77 Z" fill="#8cc4e8" stroke="#000000" stroke-width="1.5"/>
  <path d="M 69 77 L 69 68 A 1.5 1.5 0 0 1 72 68 L 72 77 Z" fill="#8cc4e8" stroke="#000000" stroke-width="1.5"/>
  <path d="M 76 77 L 76 68 A 1.5 1.5 0 0 1 79 68 L 79 77 Z" fill="#8cc4e8" stroke="#000000" stroke-width="1.5"/>
  <path d="M 80 72 L 83 72 L 83 77 L 80 77 Z" fill="#8cc4e8" stroke="#000000" stroke-width="1.5"/>

  <!-- Wheels -->
  <!-- Left Wheel -->
  <circle cx="41" cy="79" r="6" fill="#ea9ab2" stroke="#000000" stroke-width="1.5"/>
  <circle cx="41" cy="79" r="2.5" fill="#ffffff" stroke="#000000" stroke-width="1"/>
  <!-- Right Wheel -->
  <circle cx="76" cy="79" r="6" fill="#ea9ab2" stroke="#000000" stroke-width="1.5"/>
  <circle cx="76" cy="79" r="2.5" fill="#ffffff" stroke="#000000" stroke-width="1"/>
</svg>
